Wavefont-wmax,rmin,amin.ufo
<glyph name="_5" format="2">
	<unicode hex="0105"/>
	<advance width="200"/>
	<outline>
		<component base="cap"/>
		<component base="cap" yOffset="50"/>
		<contour>
			<point x="0" y="0" type="line"/>
			<point x="0" y="50" type="line"/>
			<point x="200" y="50" type="line"/>
			<point x="200" y="0" type="line"/>
		</contour>
	</outline>
</glyph>
<glyph name="_11" format="2">
	<unicode hex="010B"/>
	<advance width="250"/>
	<outline>
		<component base="cap"/>
		<component base="cap" yOffset="110"/>
		<contour>
			<point x="0" y="0" type="line"/>
			<point x="0" y="110" type="line"/>
			<point x="250" y="110" type="line"/>
			<point x="250" y="0" type="line"/>
		</contour>
	</outline>
</glyph>
<glyph name="_15" format="2">
	<unicode hex="010F"/>
	<advance width="250"/>
	<outline>
		<component base="cap"/>
		<component base="cap" yOffset="150"/>
		<contour>
			<point x="0" y="0" type="line"/>
			<point x="0" y="150" type="line"/>
			<point x="250" y="150" type="line"/>
			<point x="250" y="0" type="line"/>
		</contour>
	</outline>
</glyph>
<glyph name="_18" format="2">
	<unicode hex="0112"/>
	<unicode hex="006A"/>
	<advance width="250"/>
	<outline>
		<component base="cap"/>
		<component base="cap" yOffset="180"/>
		<contour>
			<point x="0" y="0" type="line"/>
			<point x="0" y="180" type="line"/>
			<point x="250" y="180" type="line"/>
			<point x="250" y="0" type="line"/>
		</contour>
	</outline>
</glyph>
<glyph name="_19" format="2">
	<unicode hex="0113"/>
	<advance width="404"/>
	<outline>
		<component base="cap"/>
		<component base="cap" yOffset="190"/>
		<contour>
			<point x="0" y="0" type="line"/>
			<point x="0" y="190" type="line"/>
			<point x="404" y="190" type="line"/>
			<point x="404" y="0" type="line"/>
		</contour>
	</outline>
</glyph>
<glyph name="_22" format="2">
	<unicode hex="0116"/>
	<unicode hex="006C"/>
	<advance width="250"/>
	<outline>
		<component base="cap"/>
		<component base="cap" yOffset="220"/>
		<contour>
			<point x="0" y="0" type="line"/>
			<point x="0" y="220" type="line"/>
			<point x="250" y="220" type="line"/>
			<point x="250" y="0" type="line"/>
		</contour>
	</outline>
</glyph>
<glyph name="_23" format="2">
	<unicode hex="0117"/>
	<advance width="200"/>
	<outline>
		<component base="cap"/>
		<component base="cap" yOffset="230"/>
		<contour>
			<point x="0" y="0" type="line"/>
			<point x="0" y="230" type="line"/>
			<point x="200" y="230" type="line"/>
			<point x="200" y="0" type="line"/>
		</contour>
	</outline>
</glyph>
<glyph name="_24" format="2">
	<unicode hex="0118"/>
	<unicode hex="006D"/>
	<advance width="250"/>
	<outline>
		<component base="cap"/>
		<component base="cap" yOffset="240"/>
		<contour>
			<point x="0" y="0" type="line"/>
			<point x="0" y="240" type="line"/>
			<point x="250" y="240" type="line"/>
			<point x="250" y="0" type="line"/>
		</contour>
	</outline>
</glyph>
<glyph name="_26" format="2">
	<unicode hex="011A"/>
	<unicode hex="006E"/>
	<advance width="200"/>
	<outline>
		<component base="cap"/>
		<component base="cap" yOffset="260"/>
		<contour>
			<point x="0" y="0" type="line"/>
			<point x="0" y="260" type="line"/>
			<point x="200" y="260" type="line"/>
			<point x="200" y="0" type="line"/>
		</contour>
	</outline>
</glyph>
<glyph name="_27" format="2">
	<unicode hex="011B"/>
	<advance width="250"/>
	<outline>
		<component base="cap"/>
		<component base="cap" yOffset="270"/>
		<contour>
			<point x="0" y="0" type="line"/>
			<point x="0" y="270" type="line"/>
			<point x="250" y="270" type="line"/>
			<point x="250" y="0" type="line"/>
		</contour>
	</outline>
</glyph>
<glyph name="_29" format="2">
	<unicode hex="011D"/>
	<advance width="200"/>
	<outline>
		<component base="cap"/>
		<component base="cap" yOffset="290"/>
		<contour>
			<point x="0" y="0" type="line"/>
			<point x="0" y="290" type="line"/>
			<point x="200" y="290" type="line"/>
			<point x="200" y="0" type="line"/>
		</contour>
	</outline>
</glyph>
<glyph name="_34" format="2">
	<unicode hex="0122"/>
	<unicode hex="0072"/>
	<advance width="200"/>
	<outline>
		<component base="cap"/>
		<component base="cap" yOffset="340"/>
		<contour>
			<point x="0" y="0" type="line"/>
			<point x="0" y="340" type="line"/>
			<point x="200" y="340" type="line"/>
			<point x="200" y="0" type="line"/>
		</contour>
	</outline>
</glyph>
<glyph name="_41" format="2">
	<unicode hex="0129"/>
	<advance width="250"/>
	<outline>
		<component base="cap"/>
		<component base="cap" yOffset="410"/>
		<contour>
			<point x="0" y="0" type="line"/>
			<point x="0" y="410" type="line"/>
			<point x="250" y="410" type="line"/>
			<point x="250" y="0" type="line"/>
		</contour>
	</outline>
</glyph>
<glyph name="_44" format="2">
	<unicode hex="012C"/>
	<unicode hex="0077"/>
	<advance width="404"/>
	<outline>
		<component base="cap"/>
		<component base="cap" yOffset="440"/>
		<contour>
			<point x="0" y="0" type="line"/>
			<point x="0" y="440" type="line"/>
			<point x="404" y="440" type="line"/>
			<point x="404" y="0" type="line"/>
		</contour>
	</outline>
</glyph>
<glyph name="_45" format="2">
	<unicode hex="012D"/>
	<advance width="200"/>
	<outline>
		<component base="cap"/>
		<component base="cap" yOffset="450"/>
		<contour>
			<point x="0" y="0" type="line"/>
			<point x="0" y="450" type="line"/>
			<point x="200" y="450" type="line"/>
			<point x="200" y="0" type="line"/>
		</contour>
	</outline>
</glyph>
<glyph name="_46" format="2">
	<unicode hex="012E"/>
	<unicode hex="0078"/>
	<advance width="250"/>
	<outline>
		<component base="cap"/>
		<component base="cap" yOffset="460"/>
		<contour>
			<point x="0" y="0" type="line"/>
			<point x="0" y="460" type="line"/>
			<point x="250" y="460" type="line"/>
			<point x="250" y="0" type="line"/>
		</contour>
	</outline>
</glyph>
<glyph name="_50" format="2">
	<unicode hex="0132"/>
	<unicode hex="0035"/>
	<unicode hex="007A"/>
	<advance width="404"/>
	<outline>
		<component base="cap"/>
		<component base="cap" yOffset="500"/>
		<contour>
			<point x="0" y="0" type="line"/>
			<point x="0" y="500" type="line"/>
			<point x="404" y="500" type="line"/>
			<point x="404" y="0" type="line"/>
		</contour>
	</outline>
</glyph>
<glyph name="_52" format="2">
	<unicode hex="0134"/>
	<unicode hex="0041"/>
	<advance width="200"/>
	<outline>
		<component base="cap"/>
		<component base="cap" yOffset="520"/>
		<contour>
			<point x="0" y="0" type="line"/>
			<point x="0" y="520" type="line"/>
			<point x="200" y="520" type="line"/>
			<point x="200" y="0" type="line"/>
		</contour>
	</outline>
</glyph>
<glyph name="_53" format="2">
	<unicode hex="0135"/>
	<advance width="250"/>
	<outline>
		<component base="cap"/>
		<component base="cap" yOffset="530"/>
		<contour>
			<point x="0" y="0" type="line"/>
			<point x="0" y="530" type="line"/>
			<point x="250" y="530" type="line"/>
			<point x="250" y="0" type="line"/>
		</contour>
	</outline>
</glyph>
<glyph name="_55" format="2">
	<unicode hex="0137"/>
	<advance width="250"/>
	<outline>
		<component base="cap"/>
		<component base="cap" yOffset="550"/>
		<contour>
			<point x="0" y="0" type="line"/>
			<point x="0" y="550" type="line"/>
			<point x="250" y="550" type="line"/>
			<point x="250" y="0" type="line"/>
		</contour>
	</outline>
</glyph>
<glyph name="_60" format="2">
	<unicode hex="013C"/>
	<unicode hex="0036"/>
	<unicode hex="0045"/>
	<advance width="404"/>
	<outline>
		<component base="cap"/>
		<component base="cap" yOffset="600"/>
		<contour>
			<point x="0" y="0" type="line"/>
			<point x="0" y="600" type="line"/>
			<point x="404" y="600" type="line"/>
			<point x="404" y="0" type="line"/>
		</contour>
	</outline>
</glyph>
<glyph name="_65" format="2">
	<unicode hex="0141"/>
	<advance width="200"/>
	<outline>
		<component base="cap"/>
		<component base="cap" yOffset="650"/>
		<contour>
			<point x="0" y="0" type="line"/>
			<point x="0" y="650" type="line"/>
			<point x="200" y="650" type="line"/>
			<point x="200" y="0" type="line"/>
		</contour>
	</outline>
</glyph>
<glyph name="_66" format="2">
	<unicode hex="0142"/>
	<unicode hex="0048"/>
	<advance width="200"/>
	<outline>
		<component base="cap"/>
		<component base="cap" yOffset="660"/>
		<contour>
			<point x="0" y="0" type="line"/>
			<point x="0" y="660" type="line"/>
			<point x="200" y="660" type="line"/>
			<point x="200" y="0" type="line"/>
		</contour>
	</outline>
</glyph>
<glyph name="_67" format="2">
	<unicode hex="0143"/>
	<advance width="250"/>
	<outline>
		<component base="cap"/>
		<component base="cap" yOffset="670"/>
		<contour>
			<point x="0" y="0" type="line"/>
			<point x="0" y="670" type="line"/>
			<point x="250" y="670" type="line"/>
			<point x="250" y="0" type="line"/>
		</contour>
	</outline>
</glyph>
<glyph name="_68" format="2">
	<unicode hex="0144"/>
	<unicode hex="0049"/>
	<advance width="200"/>
	<outline>
		<component base="cap"/>
		<component base="cap" yOffset="680"/>
		<contour>
			<point x="0" y="0" type="line"/>
			<point x="0" y="680" type="line"/>
			<point x="200" y="680" type="line"/>
			<point x="200" y="0" type="line"/>
		</contour>
	</outline>
</glyph>
<glyph name="_69" format="2">
	<unicode hex="0145"/>
	<advance width="404"/>
	<outline>
		<component base="cap"/>
		<component base="cap" yOffset="690"/>
		<contour>
			<point x="0" y="0" type="line"/>
			<point x="0" y="690" type="line"/>
			<point x="404" y="690" type="line"/>
			<point x="404" y="0" type="line"/>
		</contour>
	</outline>
</glyph>
<glyph name="_70" format="2">
	<unicode hex="0146"/>
	<unicode hex="0037"/>
	<unicode hex="004A"/>
	<advance width="200"/>
	<outline>
		<component base="cap"/>
		<component base="cap" yOffset="700"/>
		<contour>
			<point x="0" y="0" type="line"/>
			<point x="0" y="700" type="line"/>
			<point x="200" y="700" type="line"/>
			<point x="200" y="0" type="line"/>
		</contour>
	</outline>
</glyph>
<glyph name="_73" format="2">
	<unicode hex="0149"/>
	<advance width="200"/>
	<outline>
		<component base="cap"/>
		<component base="cap" yOffset="730"/>
		<contour>
			<point x="0" y="0" type="line"/>
			<point x="0" y="730" type="line"/>
			<point x="200" y="730" type="line"/>
			<point x="200" y="0" type="line"/>
		</contour>
	</outline>
</glyph>
<glyph name="_76" format="2">
	<unicode hex="014C"/>
	<unicode hex="004D"/>
	<advance width="250"/>
	<outline>
		<component base="cap"/>
		<component base="cap" yOffset="760"/>
		<contour>
			<point x="0" y="0" type="line"/>
			<point x="0" y="760" type="line"/>
			<point x="250" y="760" type="line"/>
			<point x="250" y="0" type="line"/>
		</contour>
	</outline>
</glyph>
<glyph name="_83" format="2">
	<unicode hex="0153"/>
	<advance width="250"/>
	<outline>
		<component base="cap"/>
		<component base="cap" yOffset="830"/>
		<contour>
			<point x="0" y="0" type="line"/>
			<point x="0" y="830" type="line"/>
			<point x="250" y="830" type="line"/>
			<point x="250" y="0" type="line"/>
		</contour>
	</outline>
</glyph>
<glyph name="_86" format="2">
	<unicode hex="0156"/>
	<unicode hex="2587"/>
	<unicode hex="0052"/>
	<advance width="404"/>
	<outline>
		<component base="cap"/>
		<component base="cap" yOffset="860"/>
		<contour>
			<point x="0" y="0" type="line"/>
			<point x="0" y="860" type="line"/>
			<point x="404" y="860" type="line"/>
			<point x="404" y="0" type="line"/>
		</contour>
	</outline>
</glyph>
<glyph name="_93" format="2">
	<unicode hex="015D"/>
	<advance width="250"/>
	<outline>
		<component base="cap"/>
		<component base="cap" yOffset="930"/>
		<contour>
			<point x="0" y="0" type="line"/>
			<point x="0" y="930" type="line"/>
			<point x="250" y="930" type="line"/>
			<point x="250" y="0" type="line"/>
		</contour>
	</outline>
</glyph>
<glyph name="_98" format="2">
	<unicode hex="0162"/>
	<unicode hex="0058"/>
	<advance width="250"/>
	<outline>
		<component base="cap"/>
		<component base="cap" yOffset="980"/>
		<contour>
			<point x="0" y="0" type="line"/>
			<point x="0" y="980" type="line"/>
			<point x="250" y="980" type="line"/>
			<point x="250" y="0" type="line"/>
		</contour>
	</outline>
</glyph>
<glyph name="_105" format="2">
	<unicode hex="0169"/>
	<advance width="250"/>
	<outline>
		<component base="cap"/>
		<component base="cap" yOffset="1050"/>
		<contour>
			<point x="0" y="0" type="line"/>
			<point x="0" y="1050" type="line"/>
			<point x="250" y="1050" type="line"/>
			<point x="250" y="0" type="line"/>
		</contour>
	</outline>
</glyph>
<glyph name="_109" format="2">
	<unicode hex="016D"/>
	<advance width="404"/>
	<outline>
		<component base="cap"/>
		<component base="cap" yOffset="1090"/>
		<contour>
			<point x="0" y="0" type="line"/>
			<point x="0" y="1090" type="line"/>
			<point x="404" y="1090" type="line"/>
			<point x="404" y="0" type="line"/>
		</contour>
	</outline>
</glyph>
<glyph name="_110" format="2">
	<unicode hex="016E"/>
	<advance width="250"/>
	<outline>
		<component base="cap"/>
		<component base="cap" yOffset="1100"/>
		<contour>
			<point x="0" y="0" type="line"/>
			<point x="0" y="1100" type="line"/>
			<point x="250" y="1100" type="line"/>
			<point x="250" y="0" type="line"/>
		</contour>
	</outline>
</glyph>
<glyph name="_117" format="2">
	<unicode hex="0175"/>
	<advance width="250"/>
	<outline>
		<component base="cap"/>
		<component base="cap" yOffset="1170"/>
		<contour>
			<point x="0" y="0" type="line"/>
			<point x="0" y="1170" type="line"/>
			<point x="250" y="1170" type="line"/>
			<point x="250" y="0" type="line"/>
		</contour>
	</outline>
</glyph>
<glyph name="_118" format="2">
	<unicode hex="0176"/>
	<advance width="200"/>
	<outline>
		<component base="cap"/>
		<component base="cap" yOffset="1180"/>
		<contour>
			<point x="0" y="0" type="line"/>
			<point x="0" y="1180" type="line"/>
			<point x="200" y="1180" type="line"/>
			<point x="200" y="0" type="line"/>
		</contour>
	</outline>
</glyph>
<glyph name="_1.clip" format="2">
	<advance width="404"/>
	<outline>
		<contour>
			<point x="0" y="10"/>
			<point x="0" y="10"/>
			<point x="0" y="10" type="curve" smooth="yes"/>
			<point x="404" y="10" type="line"/>
			<point x="404" y="10"/>
			<point x="404" y="10"/>
			<point x="404" y="10" type="curve" smooth="yes"/>
			<point x="404" y="0" type="line"/>
			<point x="404" y="0"/>
			<point x="404" y="0"/>
			<point x="404" y="0" type="curve" smooth="yes"/>
			<point x="0" y="0" type="line"/>
			<point x="0" y="0"/>
			<point x="0" y="0"/>
			<point x="0" y="0" type="curve" smooth="yes"/>
			<point x="0" y="10" type="line"/>
		</contour>
	</outline>
</glyph>
<glyph name="_7.clip" format="2">
	<advance width="404"/>
	<outline>
		<contour>
			<point x="0" y="70"/>
			<point x="0" y="70"/>
			<point x="0" y="70" type="curve" smooth="yes"/>
			<point x="404" y="70" type="line"/>
			<point x="404" y="70"/>
			<point x="404" y="70"/>
			<point x="404" y="70" type="curve" smooth="yes"/>
			<point x="404" y="0" type="line"/>
			<point x="404" y="0"/>
			<point x="404" y="0"/>
			<point x="404" y="0" type="curve" smooth="yes"/>
			<point x="0" y="0" type="line"/>
			<point x="0" y="0"/>
			<point x="0" y="0"/>
			<point x="0" y="0" type="curve" smooth="yes"/>
			<point x="0" y="70" type="line"/>
		</contour>
	</outline>
</glyph>
<glyph name=".notdef" format="2">
	<advance width="250"/>
	<outline>
		<contour>
			<point x="0" y="0" type="line"/>
			<point x="0" y="10" type="line"/>
			<point x="250" y="10" type="line"/>
			<point x="250" y="0" type="line"/>
		</contour>
	</outline>
</glyph>
